<svg xmlns="http://www.w3.org/2000/svg" width="127" height="34" viewBox="0 0 127 34"><path fill="#29619b" d="M18.38 3.56l-.74.72-3.16 3.09-5.95 5.82 2.97 2.91 5.96-5.82.92-.9 2.98-2.91 2-1.96 7.79 7.62-1.08 1.06 2.98 2.91 1.77-1.73a3.13 3.13 0 0 0 0-4.48L25.65.93a3.26 3.26 0 0 0-4.58 0l-2.69 2.63zm16.44 16.06L32.13 17l-2.98-2.92-.92-.9-5.95-5.81-2.98 2.9 5.95 5.83.92.9 2.98 2.91 2 1.96-7.79 7.61-1.08-1.06-2.98 2.92 1.77 1.73c.63.62 1.46.92 2.29.92.83 0 1.66-.3 2.29-.92l9.17-8.96a3.13 3.13 0 0 0 0-4.49zM6.69 13.2l-1.08-1.06 7.79-7.62 1.08 1.06 2.98-2.91L15.69.93a3.26 3.26 0 0 0-4.58 0L1.94 9.89a3.11 3.11 0 0 0 0 4.48l1.77 1.73.92.9 2.98 2.91.92.9 5.95 5.82 2.98-2.91L10.59 17l-2.98-2.92zm8.71 14.34l-.92.9-1.08 1.05-7.79-7.61 1.08-1.06-2.98-2.92-1.77 1.73a3.11 3.11 0 0 0 0 4.49l9.17 8.96c.63.62 1.46.92 2.29.92.83 0 1.66-.3 2.29-.92l1.77-1.73.92-.9 2.98-2.91.92-.9 5.95-5.82-2.98-2.92zm29.54-2.58h3.35l1.18-4.43h4.6l1.23 4.43h3.46l-4.8-16.78h-4.15zm6.03-10.71c.24-.98.53-2.36.76-3.4h.06c.23 1.02.52 2.37.79 3.42l1.02 3.82h-3.66zm18.67-6.07V18.3c0 2.99-1.09 4.23-2.88 4.23-1.69 0-2.83-1.28-2.83-4.23V8.17h-3.31v9.85c0 4.92 2.19 7.17 6.05 7.17 3.89 0 6.28-2.29 6.28-7.2V8.18zm5.85 16.06c.81.48 2.53.94 4.22.94 4 0 6.25-2.14 6.25-5.06 0-2.2-1.22-3.75-3.97-4.96-2.1-.93-2.95-1.48-2.95-2.68 0-.94.78-1.85 2.53-1.85 1.4 0 2.45.41 3.05.72l.7-2.65a8.54 8.54 0 0 0-3.69-.76c-3.7 0-5.91 2.12-5.91 4.87 0 2.18 1.6 3.75 4.19 4.84 1.9.81 2.73 1.53 2.73 2.73 0 1.24-.96 2.1-2.79 2.1a7.82 7.82 0 0 1-3.71-.94zm16.93-5.56c.33.06.73.08 1.2.08 2.57 0 6.5-1.02 6.5-5.63 0-1.55-.63-2.9-1.65-3.75-1.1-.92-2.73-1.33-4.89-1.33-1.9 0-3.37.15-4.45.35v16.56h3.29zm0-7.99c.29-.06.76-.13 1.43-.13 1.83 0 2.99.94 2.99 2.73 0 1.8-1.21 2.94-3.26 2.94-.49 0-.85-.02-1.16-.08zm13.09 11.57v-4.67h5.6v-2.64h-5.6v-4.06h5.94v-2.7h-9.24v16.77h9.6v-2.7zM126.8 8.17h-3.64l-1.45 3.27c-.42.97-.72 1.73-1.12 2.78h-.04c-.4-.94-.74-1.8-1.18-2.75l-1.55-3.3h-3.68l4.29 8.25-4.45 8.53h3.62l1.41-3.23c.51-1.15.91-2.07 1.27-3.07h.07c.42 1 .82 1.9 1.4 3.05l1.54 3.25H127l-4.6-8.55z"/></svg>