<svg xmlns="http://www.w3.org/2000/svg" xmlns:xlink="http://www.w3.org/1999/xlink" width="16" height="90" viewBox="0 0 16 90"><svg width="15" height="15" viewBox="0 0 15 15"><defs><clipPath id="a"><path fill="#fff" d="M804 559h11a2 2 0 0 1 2 2v11a2 2 0 0 1-2 2h-11a2 2 0 0 1-2-2v-11c0-1.1.9-2 2-2z"/></clipPath></defs><path fill="#fff" d="M2 0h11a2 2 0 0 1 2 2v11a2 2 0 0 1-2 2H2a2 2 0 0 1-2-2V2C0 .9.9 0 2 0z"/><path fill="none" stroke="#535c69" stroke-miterlimit="50" stroke-width="2" d="M804 559h11a2 2 0 0 1 2 2v11a2 2 0 0 1-2 2h-11a2 2 0 0 1-2-2v-11c0-1.1.9-2 2-2z" clip-path="url(&amp;quot;#a&amp;quot;)" transform="translate(-802 -559)"/></svg><svg width="15" height="15" viewBox="0 0 15 15" y="15"><path fill="#fff" d="M2 0h11a2 2 0 0 1 2 2v11a2 2 0 0 1-2 2H2a2 2 0 0 1-2-2V2C0 .9.9 0 2 0z"/><path fill="none" stroke="#535c69" stroke-miterlimit="50" stroke-width="2" d="M804 559h11a2 2 0 0 1 2 2v11a2 2 0 0 1-2 2h-11a2 2 0 0 1-2-2v-11c0-1.1.9-2 2-2z" clip-path="url(&amp;quot;#a&amp;quot;)" transform="translate(-802 -559)"/><path fill="none" stroke="#535c69" stroke-linecap="round" stroke-miterlimit="50" stroke-width="2" d="M5 7l2 2 4-5"/></svg><svg width="14.73" height="13.2" viewBox="0 0 14.73 13.2" y="30"><path fill="#f3f5f4" d="M0 13V0h14v13z"/><path fill="none" stroke="#5c6574" stroke-miterlimit="50" stroke-width="4" d="M301 614v-13h14v13z" clip-path="url(&amp;quot;#a&amp;quot;)" transform="translate(-301 -601)"/><path fill="none" stroke="#5c6574" stroke-miterlimit="50" stroke-width="2" d="M2.63 11.66l7.01-6.8 3 2.91v3.89z"/></svg><svg width="16" height="16" viewBox="0 0 16 16" y="44"><path fill="#939ca5" d="M15.66 14.2l-4.17-4.19A6.32 6.32 0 0 0 6.34 0a6.34 6.34 0 1 0 3.65 11.5l4.18 4.2c.37.37 1.05.37 1.5 0 .44-.45.44-1.05 0-1.5zm-9.32-2.99a4.84 4.84 0 0 1-4.85-4.86 4.84 4.84 0 1 1 9.7 0 4.84 4.84 0 0 1-4.85 4.86z"/></svg><svg width="13" height="12" viewBox="0 0 13 12" y="60"><path fill="#5c6574" d="M0 2V0h13v2zm0 5V5h13v2zm0 5v-2h9v2z"/></svg><svg width="8" height="18" viewBox="0 0 8 18" y="72"><path fill="#5c6574" d="M5.27 0L2.32.04C1.02.06-.02 1.06 0 2.29l.06 3.07c.02 1.23 1.1 2.21 2.4 2.2l-.02-1.74c-.39-.18-.61-.6-.62-1.04l-.04-1.95c-.01-.62.5-1.12 1.16-1.13l1.77-.02c.65 0 1.19.48 1.2 1.1l.04 1.95c.01.42-.22.87-.57 1.07l.04 1.72a2.27 2.27 0 0 0 2.31-2.25L7.68 2.2C7.66.97 6.58 0 5.28 0zm.23 11.23c.37.2.62.65.63 1.08l.04 1.82c.01.62-.51 1.14-1.18 1.15l-1.8.02c-.67 0-1.22-.5-1.23-1.12l-.04-1.82c0-.45.2-.88.6-1.08l-.05-1.77C1.14 9.53.08 10.56.1 11.81l.06 2.96C.2 16.02 1.29 17.02 2.62 17l3.01-.04c1.33-.01 2.38-1.04 2.36-2.3l-.07-2.95a2.37 2.37 0 0 0-2.45-2.24zm-1.44.58c.45 0 .8-.34.8-.77l-.17-5.1a.81.81 0 0 0-.83-.76c-.45 0-.8.34-.8.77l.17 5.1c0 .42.38.77.83.76z"/></svg></svg>